<svg xmlns="http://www.w3.org/2000/svg" xmlns:xlink="http://www.w3.org/1999/xlink" width="1000" height="1000" viewBox="0 0 1000 1000">
  <defs>
    <linearGradient id="linear-gradient" x1="1" x2="0" y2="1" gradientUnits="objectBoundingBox">
      <stop offset="0" stop-color="#4361ee"/>
      <stop offset="0.5" stop-color="#ef233c"/>
      <stop offset="1" stop-color="#ffba08"/>
    </linearGradient>
  </defs>
  <path id="Subtraction_1" data-name="Subtraction 1" d="M1600,1000a507.984,507.984,0,0,1-51.122-2.582,501.259,501.259,0,0,1-49.645-7.577c-16.109-3.3-32.23-7.442-47.917-12.321-15.512-4.825-30.967-10.482-45.938-16.814-14.833-6.274-29.538-13.357-43.707-21.055-14.069-7.643-27.939-16.069-41.225-25.045-13.22-8.931-26.171-18.615-38.492-28.784-12.29-10.143-24.236-21-35.507-32.271s-22.129-23.218-32.271-35.507c-10.166-12.318-19.85-25.268-28.784-38.492-8.975-13.286-17.4-27.156-25.045-41.225-7.7-14.17-14.782-28.875-21.055-43.707-6.332-14.969-11.989-30.425-16.814-45.938-4.879-15.687-9.025-31.809-12.321-47.917a501.225,501.225,0,0,1-7.577-49.645,507.474,507.474,0,0,1,0-102.244,501.226,501.226,0,0,1,7.577-49.645c3.3-16.109,7.442-32.23,12.321-47.917,4.825-15.513,10.482-30.969,16.814-45.938,6.273-14.832,13.357-29.537,21.055-43.707,7.643-14.069,16.069-27.939,25.045-41.225,8.934-13.223,18.618-26.174,28.784-38.492,10.142-12.289,21-24.236,32.271-35.507s23.218-22.129,35.507-32.271c12.32-10.167,25.271-19.852,38.492-28.784,13.287-8.976,27.157-17.4,41.225-25.045,14.17-7.7,28.875-14.781,43.707-21.055,14.97-6.332,30.426-11.989,45.938-16.814,15.687-4.879,31.809-9.024,47.917-12.321a501.258,501.258,0,0,1,49.645-7.577,507.483,507.483,0,0,1,102.244,0,501.247,501.247,0,0,1,49.645,7.577c16.109,3.3,32.23,7.442,47.917,12.321,15.512,4.825,30.967,10.482,45.938,16.814,14.832,6.273,29.537,13.357,43.707,21.055,14.069,7.643,27.939,16.069,41.225,25.045,13.223,8.933,26.174,18.618,38.492,28.784,12.289,10.142,24.236,21,35.507,32.271s22.129,23.218,32.271,35.507c10.167,12.32,19.851,25.27,28.784,38.492,8.976,13.286,17.4,27.156,25.045,41.225,7.7,14.171,14.782,28.876,21.055,43.707,6.333,14.972,11.99,30.428,16.813,45.938,4.88,15.69,9.025,31.811,12.321,47.917a501.339,501.339,0,0,1,7.577,49.645,507.521,507.521,0,0,1,0,102.244,501.336,501.336,0,0,1-7.577,49.645c-3.3,16.106-7.441,32.227-12.321,47.917-4.824,15.51-10.481,30.966-16.813,45.938-6.273,14.831-13.357,29.536-21.055,43.707-7.643,14.069-16.069,27.939-25.045,41.225-8.933,13.222-18.617,26.172-28.784,38.492-10.142,12.289-21,24.236-32.271,35.507s-23.217,22.128-35.507,32.271c-12.319,10.167-25.269,19.851-38.492,28.784-13.285,8.976-27.156,17.4-41.225,25.045-14.17,7.7-28.875,14.781-43.707,21.055-14.971,6.332-30.427,11.989-45.938,16.814-15.687,4.879-31.808,9.024-47.917,12.321a501.248,501.248,0,0,1-49.645,7.577A507.989,507.989,0,0,1,1600,1000Zm0-750c-137.851,0-250,112.15-250,250s112.15,250,250,250,250-112.149,250-250S1737.851,250,1600,250Z" transform="translate(-1100 0)" fill="url(#linear-gradient)"/>
</svg>
